# xmcd
#
# Track frame offsets:
#	150
#	16507
#	35876
#	44451
#	57535
#	69942
#	79381
#	88843
#	98399
#	108586
#	128867
#	143049
#	154568
#	167559
#	183984
#	198657
#	210035
#	219871
#	231249
#	245478
#	266413
#	291238
#	301215
#
# Disc length: 4361 seconds
#
# Revision: 1
# Processed by: cddbd v1.5.2PL0 Copyright (c) Steve Scherf et al.
# Submitted via: audiograbber 1.83.01
#
DISCID=3b110717
DTITLE=David Allan Coe - Live - Hilversum, Holland 1/26/83 [CDOne)
DYEAR=1983
DGENRE=Country
TTITLE0=For Lovers Only, Pt. 2
TTITLE1=Pledging My Love
TTITLE2=Crazy Mary
TTITLE3=Maria Is a Mystery
TTITLE4=The Petals from a Rose
TTITLE5=Save the Day
TTITLE6=Argument for Love
TTITLE7=Jody Like a Melody
TTITLE8=Would You Lay With Me (In a Field of Stone)
TTITLE9=These Days
TTITLE10=Willie, Waylon and Me
TTITLE11=The House We've Been Calling a Home
TTITLE12=Get a Little Dirt on Your Hands
TTITLE13=Please Come to Boston
TTITLE14=Ride 'Em Cowboy
TTITLE15=Tennessee Whiskey
TTITLE16=Whiskey, Whiskey (Take My Mind)
TTITLE17=Lately I've Been Thinking Too Much Lately
TTITLE18=Under Rachel's Wings
TTITLE19=If That Ain't Country
TTITLE20=Knockin' on Heaven's Door
TTITLE21=Blowin' in the Wind - Lay Lady Lay
TTITLE22=Castles in the Sand
EXTD=
EXTT0=
EXTT1=
EXTT2=
EXTT3=
EXTT4=
EXTT5=
EXTT6=
EXTT7=
EXTT8=
EXTT9=
EXTT10=
EXTT11=
EXTT12=
EXTT13=
EXTT14=
EXTT15=
EXTT16=
EXTT17=
EXTT18=
EXTT19=
EXTT20=
EXTT21=
EXTT22=
PLAYORDER=
